# xmcd
#
# Track frame offsets:
#	150
#	13539
#	29215
#	41798
#	54585
#	68299
#	90980
#	104768
#	118860
#	133946
#	147736
#	167951
#	182566
#	201063
#	211443
#	224250
#	238163
#	247263
#	262890
#	277846
#	287544
#	301795
#
# Disc length: 4213 seconds
# Revision: 0
# Processed by: cddbd v1.5.2PL0 Copyright (c) Steve Scherf et al.
# Submitted via: dBpowerAMP V12.0
#
DISCID=53107316
DTITLE=Albert Lee - Black Claw and Country Fever [Imports] (s)
DYEAR=2005
DGENRE=Country
TTITLE0=That's All Right Mama
TTITLE1=What A Stupid Thing To Do
TTITLE2=Best I Can
TTITLE3=Send Me Back To The Mines
TTITLE4=The Fool 1
TTITLE5=Another Usless Day
TTITLE6=6 Days On The Road
TTITLE7=Good Times
TTITLE8=St. Louis
TTITLE9=Brother Preacher
TTITLE10=Country In Harlem
TTITLE11=Look Out Cleveland
TTITLE12=Tears Of Rage
TTITLE13=Mama Come Get Your Baby Boy
TTITLE14=Memphis Streets
TTITLE15=Long Gone
TTITLE16=Too Much Of Nothing
TTITLE17=Rocky Top
TTITLE18=Tonight I'll Be Staying Here With You
TTITLE19=Mama Tried
TTITLE20=Lay Lady Lay
TTITLE21=The Fool
EXTD=
EXTT0=
EXTT1=
EXTT2=
EXTT3=
EXTT4=
EXTT5=
EXTT6=
EXTT7=
EXTT8=
EXTT9=
EXTT10=
EXTT11=
EXTT12=
EXTT13=
EXTT14=
EXTT15=
EXTT16=
EXTT17=
EXTT18=
EXTT19=
EXTT20=
EXTT21=
PLAYORDER=
